#!OML:ASF F:\VICON\USERDATA\INSTALL\rory3\rory3.ASF
:FULLY-SPECIFIED
:DEGREES
720
root -3.09453 19.3542 7.50657 -258.557 -75.5395 252.766
lowerback 11.1078 0.730974 -0.947484
upperback -4.01784 0.272333 -4.59576
thorax -10.5956 -0.0391546 -4.49735
lowerneck -13.3251 -7.98423 -14.3982
upperneck -7.04615 -9.03362 18.2951
head 1.69615 -4.19183 7.44354
rclavicle -1.63003e-014 2.22639e-014
rhumerus 75.8623 -42.3507 -36.3682
rradius 25.9173
rwrist 14.5582
rhand -21.3523 -0.420038
rfingers 7.12502
rthumb 5.03414 -30.3402
lclavicle -1.63003e-014 2.22639e-014
lhumerus -60.2341 25.4339 21.873
lradius 25.1757
lwrist 8.4088
lhand -20.165 30.7835
lfingers 7.12502
lthumb 6.18053 60.6733
rfemur -30.8042 -5.45075 14.9781
rtibia 27.2395
rfoot -5.24449 -23.0947
rtoes 16.8249
lfemur 3.86197 1.97917 -6.81036
ltibia 19.9726
lfoot 16.9998 -3.60658
ltoes -31.4007
721
root -3.11442 19.3555 7.53471 -259.928 -75.6363 254.084
lowerback 10.9171 0.746577 -1.00216
upperback -4.04419 0.28318 -4.64788
thorax -10.5114 -0.0324538 -4.52018
lowerneck -13.3009 -8.14212 -14.5297
upperneck -6.85182 -9.24224 18.2945
head 1.7879 -4.28617 7.44019
rclavicle 1.23246e-014 3.18055e-015
rhumerus 75.3108 -42.3012 -35.7744
rradius 25.8298
rwrist 14.6085
rhand -21.1739 -0.390317
rfingers 7.12502
rthumb 5.20642 -30.3064
lclavicle 1.23246e-014 3.18055e-015
lhumerus -60.4457 25.8752 21.6885
lradius 24.9554
lwrist 8.21562
lhand -20.1709 30.9808
lfingers 7.12502
lthumb 6.17484 60.8708
rfemur -30.5934 -5.45661 14.8211
rtibia 27.1023
rfoot -7.9316 -23.955
rtoes 20.4952
lfemur 3.89231 1.68897 -6.84714
ltibia 19.8795
lfoot 17.6177 -3.32149
ltoes -30.9987
722
root -3.13169 19.364 7.56123 -261.62 -75.6865 255.691
lowerback 10.8597 0.747572 -1.02552
upperback -4.10058 0.274396 -4.68863
thorax -10.5413 -0.0385838 -4.55028
lowerneck -13.3785 -8.29802 -14.6171
upperneck -6.51643 -9.44937 18.1824
head 1.92585 -4.37322 7.38779
rclavicle 2.70347e-014 -3.81667e-014
rhumerus 74.7132 -42.2442 -35.2004
rradius 25.7315
rwrist 14.5874
rhand -21.032 -0.181019
rfingers 7.12502
rthumb 5.34348 -30.0936
lclavicle 2.70347e-014 -3.81667e-014
lhumerus -60.7171 26.2978 21.4609
lradius 24.8408
lwrist 7.89379
lhand -20.0477 30.8675
lfingers 7.12502
lthumb 6.29373 60.754
rfemur -30.2736 -4.9144 14.5497
rtibia 27.0028
rfoot -11.3863 -24.7807
rtoes 24.225
lfemur 3.8673 1.47984 -6.76894
ltibia 19.8355
lfoot 18.4205 -3.34846
ltoes -30.5095
723
root -3.14693 19.3716 7.58707 -263.253 -75.7272 257.273
lowerback 10.8177 0.754035 -1.05791
upperback -4.18269 0.272371 -4.70733
thorax -10.6085 -0.0404903 -4.55405
lowerneck -13.376 -8.43772 -14.8353
upperneck -6.29534 -9.61592 18.1319
head 2.02239 -4.44329 7.38557
rclavicle 1.90833e-014 -3.49861e-014
rhumerus 73.7081 -42.1685 -34.104
rradius 25.8308
rwrist 14.2038
rhand -21.0358 -0.117314
rfingers 7.12502
rthumb 5.33976 -30.03
lclavicle 1.90833e-014 -3.49861e-014
lhumerus -61.1888 26.9062 21.0714
lradius 24.8457
lwrist 7.27283
lhand -19.8509 30.5898
lfingers 7.12502
lthumb 6.48371 60.4706
rfemur -30.0385 -4.45949 14.3679
rtibia 26.9676
rfoot -14.0007 -25.4266
rtoes 25.8551
lfemur 3.79543 1.36513 -6.7014
ltibia 19.7583
lfoot 19.2898 -3.5631
ltoes -30.4947
724
root -3.16682 19.3824 7.61547 -265.183 -75.6857 259.147
lowerback 10.7068 0.746262 -0.989413
upperback -4.22716 0.274656 -4.70918
thorax -10.5915 -0.0441531 -4.59382
lowerneck -13.3091 -8.59243 -14.9438
upperneck -6.20544 -9.81706 18.055
head 2.06916 -4.53989 7.35691
rclavicle 1.74931e-014 -5.08889e-014
rhumerus 73.1798 -42.1665 -33.538
rradius 25.8069
rwrist 14.106
rhand -21.1115 0.0512796
rfingers 7.12502
rthumb 5.2667 -29.8633
lclavicle 1.74931e-014 -5.08889e-014
lhumerus -61.5788 27.3787 20.9252
lradius 24.9934
lwrist 6.91034
lhand -19.7291 30.5439
lfingers 7.12502
lthumb 6.60137 60.421
rfemur -29.7873 -4.15824 14.3178
rtibia 27.0296
rfoot -16.1248 -25.8367
rtoes 26.5372
lfemur 3.76252 1.09448 -6.59482
ltibia 19.5858
lfoot 20.2395 -4.12729
ltoes -31.3747
725
root -3.1921 19.3992 7.64572 -267.571 -75.6248 261.414
lowerback 10.6057 0.681381 -0.882979
upperback -4.24187 0.20196 -4.75141
thorax -10.553 -0.0879529 -4.68403
lowerneck -13.3237 -8.72047 -14.8567
upperneck -6.01957 -10.011 17.9614
head 2.14505 -4.63222 7.28678
rclavicle -2.38542e-015 -1.27222e-014
rhumerus 73.185 -42.18 -33.6366
rradius 25.5911
rwrist 14.3311
rhand -21.2194 0.0128483
rfingers 7.12502
rthumb 5.16246 -29.9043
lclavicle -2.38542e-015 -1.27222e-014
lhumerus -61.8529 27.7579 20.6911
lradius 25.113
lwrist 6.48355
lhand -19.6279 30.8015
lfingers 7.12502
lthumb 6.69904 60.6756
rfemur -29.4099 -3.98716 14.2813
rtibia 27.1433
rfoot -17.9329 -26.0543
rtoes 27.4952
lfemur 3.76551 0.657565 -6.47729
ltibia 19.3946
lfoot 21.2873 -4.60647
ltoes -31.9228
726
root -3.21582 19.4173 7.67748 -270.118 -75.4484 263.842
lowerback 10.5218 0.630502 -0.647661
upperback -4.21604 0.171673 -4.78209
thorax -10.4759 -0.117785 -4.84253
lowerneck -13.3263 -8.91974 -14.9767
upperneck -5.90655 -10.2736 18.0507
head 2.23325 -4.75516 7.30314
rclavicle 1.43125e-014 -9.54166e-015
rhumerus 73.3023 -42.3542 -33.8635
rradius 25.377
rwrist 14.6707
rhand -21.3961 -0.133152
rfingers 7.12502
rthumb 4.9919 -30.0544
lclavicle 1.43125e-014 -9.54166e-015
lhumerus -61.7675 28.184 20.5449
lradius 24.9866
lwrist 6.0574
lhand -19.146 31.397
lfingers 7.12502
lthumb 7.16421 61.2558
rfemur -29.0167 -4.12566 14.4355
rtibia 27.2737
rfoot -18.8064 -26.0927
rtoes 27.6562
lfemur 3.71346 -0.0847313 -6.27065
ltibia 19.2464
lfoot 22.4116 -4.1982
ltoes -30.8947
727
root -3.23302 19.4315 7.71281 -272.545 -75.3563 266.304
lowerback 10.3728 0.602489 -0.448554
upperback -4.22766 0.158464 -4.86706
thorax -10.4015 -0.140742 -5.04289
lowerneck -13.3428 -9.1891 -15.0536
upperneck -5.76002 -10.634 18.0335
head 2.33826 -4.92685 7.26521
rclavicle -4.77083e-015 3.18055e-014
rhumerus 73.3597 -42.6659 -34.1118
rradius 25.2348
rwrist 14.9127
rhand -21.6618 -0.0101683
rfingers 7.12502
rthumb 4.73537 -29.9372
lclavicle -4.77083e-015 3.18055e-014
lhumerus -61.5895 28.5686 20.602
lradius 24.9274
lwrist 5.93907
lhand -17.8561 32.6133
lfingers 7.12502
lthumb 8.40926 62.4259
rfemur -28.7968 -4.26448 14.4619
rtibia 27.4189
rfoot -19.3622 -25.9288
rtoes 27.7202
lfemur 3.47516 -1.06982 -6.22078
ltibia 19.1617
lfoot 23.3837 -3.25768
ltoes -29.2552
728
root -3.2487 19.438 7.74527 -275.014 -75.2534 268.829
lowerback 10.2182 0.566382 -0.307864
upperback -4.25311 0.127733 -4.92592
thorax -10.3409 -0.167192 -5.17841
lowerneck -13.2742 -9.38975 -14.8816
upperneck -5.74461 -10.9268 17.7568
head 2.34584 -5.07912 7.11681
rclavicle -1.43125e-014 3.18055e-014
rhumerus 73.5736 -42.9359 -34.4072
rradius 25.0472
rwrist 15.0162
rhand -21.8861 -0.1404
rfingers 7.12502
rthumb 4.51872 -30.0722
lclavicle -1.43125e-014 3.18055e-014
lhumerus -61.5425 28.7864 20.8934
lradius 25.0729
lwrist 5.73573
lhand -17.014 33.2662
lfingers 7.12502
lthumb 9.22179 63.0445
rfemur -28.5905 -4.231 14.4122
rtibia 27.5946
rfoot -19.8804 -25.6759
rtoes 27.8153
lfemur 3.18936 -1.67036 -6.1567
ltibia 19.1705
lfoot 24.2699 -2.82505
ltoes -28.1797
729
root -3.26571 19.4448 7.77444 -277.621 -75.014 271.431
lowerback 10.133 0.534961 -0.15921
upperback -4.27761 0.117081 -4.87443
thorax -10.3177 -0.178591 -5.20339
lowerneck -13.037 -9.56503 -14.8927
upperneck -5.8632 -11.1712 17.6098
head 2.30024 -5.21184 7.05404
rclavicle -8.74653e-015 3.18055e-015
rhumerus 73.7594 -43.1468 -34.4542
rradius 24.9004
rwrist 14.907
rhand -21.9923 -0.625361
rfingers 7.12502
rthumb 4.41621 -30.5593
lclavicle -8.74653e-015 3.18055e-015
lhumerus -61.4664 28.7729 21.6043
lradius 25.1588
lwrist 5.21739
lhand -17.9073 32.4182
lfingers 7.12502
lthumb 8.35978 62.2327
rfemur -28.2721 -3.98226 14.4225
rtibia 27.8413
rfoot -20.4507 -25.3126
rtoes 28.3528
lfemur 2.95215 -2.09047 -5.96013
ltibia 19.2315
lfoot 25.1448 -2.31947
ltoes -26.7991
